<svg width="3855" height="3855" viewBox="0 0 3855 3855" fill="none" xmlns="http://www.w3.org/2000/svg">
<rect width="3855" height="3855" fill="white"/>
<circle cx="2854.5" cy="2284.5" r="94.5" transform="rotate(90 2854.5 2284.5)" stroke="black" stroke-width="8"/>
<circle cx="2936.5" cy="2517.5" r="121.5" transform="rotate(90 2936.5 2517.5)" stroke="black" stroke-width="8"/>
<circle cx="1922.5" cy="3533.5" r="121.5" transform="rotate(90 1922.5 3533.5)" stroke="black" stroke-width="8"/>
<circle cx="1000.5" cy="2752.5" r="94.5" transform="rotate(-90 1000.5 2752.5)" stroke="black" stroke-width="8"/>
<circle cx="1000.5" cy="2288.5" r="94.5" transform="rotate(-90 1000.5 2288.5)" stroke="black" stroke-width="8"/>
<circle cx="1194.5" cy="2982.5" r="94.5" transform="rotate(-90 1194.5 2982.5)" stroke="black" stroke-width="8"/>
<circle cx="1174.5" cy="2054.5" r="94.5" transform="rotate(-90 1174.5 2054.5)" stroke="black" stroke-width="8"/>
<circle cx="918.5" cy="2523.5" r="121.5" transform="rotate(90 918.5 2523.5)" stroke="black" stroke-width="8"/>
<path d="M2168.08 1288.06C2168.08 1422.15 2059.1 1530.85 1924.65 1530.85C1790.21 1530.85 1681.23 1422.15 1681.23 1288.06C1681.23 1153.98 1790.21 1045.27 1924.65 1045.27C2059.1 1045.27 2168.08 1153.98 2168.08 1288.06Z" stroke="black" stroke-width="4"/>
<line x1="1778.43" y1="1092.83" x2="2070.92" y2="1092.83" stroke="black" stroke-width="4"/>
<line x1="1700.68" y1="1190.07" x2="2148.66" y2="1190.07" stroke="black" stroke-width="4"/>
<rect x="1811.2" y="1184.95" width="26.4754" height="10.8981" fill="white"/>
<rect x="1714.12" y="1184.95" width="26.4754" height="10.8981" fill="white"/>
<rect x="1910.37" y="1184.95" width="26.4754" height="10.8981" fill="white"/>
<rect x="2007.45" y="1184.11" width="26.4754" height="7.96402" fill="white"/>
<rect x="2104.95" y="1186.21" width="26.4754" height="7.96402" fill="white"/>
<rect x="1811.2" y="1088.12" width="26.4754" height="10.8981" fill="white"/>
<rect x="1714.12" y="1088.12" width="26.4754" height="10.8981" fill="white"/>
<rect x="1910.37" y="1088.12" width="26.4754" height="10.8981" fill="white"/>
<rect x="2007.45" y="1087.28" width="26.4754" height="7.96402" fill="white"/>
<rect x="2104.95" y="1089.38" width="26.4754" height="7.96402" fill="white"/>
<line x1="1679.24" y1="1287.32" x2="2169.25" y2="1287.32" stroke="black" stroke-width="4"/>
<rect x="1811.2" y="1280.51" width="26.4754" height="10.8981" fill="white"/>
<rect x="1714.12" y="1280.51" width="26.4754" height="10.8981" fill="white"/>
<rect x="1910.37" y="1280.51" width="26.4754" height="10.8981" fill="white"/>
<rect x="2007.45" y="1281.77" width="26.4754" height="7.96402" fill="white"/>
<rect x="2104.95" y="1281.77" width="26.4754" height="7.96402" fill="white"/>
<line x1="1701.09" y1="1384.56" x2="2146.13" y2="1384.56" stroke="black" stroke-width="4"/>
<rect x="1809.52" y="1379.85" width="26.4754" height="10.8981" fill="white"/>
<rect x="1712.45" y="1379.85" width="26.4754" height="10.8981" fill="white"/>
<rect x="1908.7" y="1379.85" width="26.4754" height="10.8981" fill="white"/>
<rect x="2005.78" y="1381.12" width="26.4754" height="7.96402" fill="white"/>
<rect x="2103.27" y="1381.12" width="26.4754" height="7.96402" fill="white"/>
<line x1="1779.05" y1="1482.15" x2="2071.1" y2="1482.15" stroke="black" stroke-width="4"/>
<rect x="1811.2" y="1476.68" width="26.4754" height="10.8981" fill="white"/>
<rect x="1714.12" y="1476.68" width="26.4754" height="10.8981" fill="white"/>
<rect x="1910.37" y="1476.68" width="26.4754" height="10.8981" fill="white"/>
<rect x="2007.45" y="1477.94" width="26.4754" height="7.96402" fill="white"/>
<rect x="2104.95" y="1477.94" width="26.4754" height="7.96402" fill="white"/>
<line x1="2117.86" y1="1139.26" x2="2117.86" y2="1436.02" stroke="black" stroke-width="4"/>
<line x1="2020.37" y1="1063.81" x2="2020.37" y2="1512.31" stroke="black" stroke-width="4"/>
<line x1="1924.37" y1="1044.11" x2="1924.37" y2="1532.85" stroke="black" stroke-width="7"/>
<line x1="1825.37" y1="1065.9" x2="1825.37" y2="1509.79" stroke="black" stroke-width="4"/>
<line x1="1727.87" y1="1145.54" x2="1727.87" y2="1430.57" stroke="black" stroke-width="4"/>
<mask id="mask0_30_2877" style="mask-type:alpha" maskUnits="userSpaceOnUse" x="1809" y="1173" width="31" height="20">
<rect x="1839.76" y="1192.07" width="29.8373" height="18.443" transform="rotate(180 1839.76 1192.07)" fill="#D9D9D9"/>
</mask>
<g mask="url(#mask0_30_2877)">
<path d="M1811.91 1189.14C1811.91 1182.38 1817.41 1176.89 1824.2 1176.89C1830.99 1176.89 1836.49 1182.38 1836.49 1189.14C1836.49 1195.9 1830.99 1201.39 1824.2 1201.39C1817.41 1201.39 1811.91 1195.9 1811.91 1189.14Z" stroke="black" stroke-width="4"/>
</g>
<mask id="mask1_30_2877" style="mask-type:alpha" maskUnits="userSpaceOnUse" x="1908" y="1173" width="31" height="20">
<rect x="1938.53" y="1192.07" width="29.8373" height="18.443" transform="rotate(180 1938.53 1192.07)" fill="#D9D9D9"/>
</mask>
<g mask="url(#mask1_30_2877)">
<path d="M1910.68 1189.14C1910.68 1182.38 1916.17 1176.89 1922.97 1176.89C1929.76 1176.89 1935.25 1182.38 1935.25 1189.14C1935.25 1195.9 1929.76 1201.39 1922.97 1201.39C1916.17 1201.39 1910.68 1195.9 1910.68 1189.14Z" stroke="black" stroke-width="4"/>
</g>
<mask id="mask2_30_2877" style="mask-type:alpha" maskUnits="userSpaceOnUse" x="2006" y="1173" width="31" height="20">
<rect x="2036.01" y="1192.07" width="29.8373" height="18.443" transform="rotate(180 2036.01 1192.07)" fill="#D9D9D9"/>
</mask>
<g mask="url(#mask2_30_2877)">
<path d="M2008.16 1189.14C2008.16 1182.38 2013.66 1176.89 2020.45 1176.89C2027.24 1176.89 2032.74 1182.38 2032.74 1189.14C2032.74 1195.9 2027.24 1201.39 2020.45 1201.39C2013.66 1201.39 2008.16 1195.9 2008.16 1189.14Z" stroke="black" stroke-width="4"/>
</g>
<mask id="mask3_30_2877" style="mask-type:alpha" maskUnits="userSpaceOnUse" x="1809" y="1076" width="31" height="19">
<rect x="1839.76" y="1094.83" width="29.8373" height="18.443" transform="rotate(180 1839.76 1094.83)" fill="#D9D9D9"/>
</mask>
<g mask="url(#mask3_30_2877)">
<path d="M1811.92 1091.9C1811.92 1085.13 1817.42 1079.64 1824.21 1079.64C1831 1079.64 1836.5 1085.13 1836.5 1091.9C1836.5 1098.66 1831 1104.15 1824.21 1104.15C1817.42 1104.15 1811.92 1098.66 1811.92 1091.9Z" stroke="black" stroke-width="4"/>
</g>
<mask id="mask4_30_2877" style="mask-type:alpha" maskUnits="userSpaceOnUse" x="1908" y="1076" width="31" height="19">
<rect x="1938.53" y="1094.83" width="29.8373" height="18.443" transform="rotate(180 1938.53 1094.83)" fill="#D9D9D9"/>
</mask>
<g mask="url(#mask4_30_2877)">
<path d="M1910.68 1091.9C1910.68 1085.13 1916.17 1079.64 1922.97 1079.64C1929.76 1079.64 1935.25 1085.13 1935.25 1091.9C1935.25 1098.66 1929.76 1104.15 1922.97 1104.15C1916.17 1104.15 1910.68 1098.66 1910.68 1091.9Z" stroke="black" stroke-width="4"/>
</g>
<mask id="mask5_30_2877" style="mask-type:alpha" maskUnits="userSpaceOnUse" x="2006" y="1076" width="31" height="19">
<rect x="2036.01" y="1094.83" width="29.8373" height="18.443" transform="rotate(180 2036.01 1094.83)" fill="#D9D9D9"/>
</mask>
<g mask="url(#mask5_30_2877)">
<path d="M2008.16 1091.9C2008.16 1085.13 2013.66 1079.64 2020.45 1079.64C2027.24 1079.64 2032.74 1085.13 2032.74 1091.9C2032.74 1098.66 2027.24 1104.15 2020.45 1104.15C2013.66 1104.15 2008.16 1098.66 2008.16 1091.9Z" stroke="black" stroke-width="4"/>
</g>
<mask id="mask6_30_2877" style="mask-type:alpha" maskUnits="userSpaceOnUse" x="2103" y="1173" width="31" height="20">
<rect x="2133.51" y="1192.07" width="29.8373" height="18.443" transform="rotate(180 2133.51 1192.07)" fill="#D9D9D9"/>
</mask>
<g mask="url(#mask6_30_2877)">
<path d="M2105.66 1189.14C2105.66 1182.38 2111.16 1176.89 2117.95 1176.89C2124.74 1176.89 2130.24 1182.38 2130.24 1189.14C2130.24 1195.9 2124.74 1201.39 2117.95 1201.39C2111.16 1201.39 2105.66 1195.9 2105.66 1189.14Z" stroke="black" stroke-width="4"/>
</g>
<mask id="mask7_30_2877" style="mask-type:alpha" maskUnits="userSpaceOnUse" x="1712" y="1173" width="31" height="20">
<rect x="1742.28" y="1192.07" width="29.8373" height="18.443" transform="rotate(180 1742.28 1192.07)" fill="#D9D9D9"/>
</mask>
<g mask="url(#mask7_30_2877)">
<path d="M1714.43 1189.14C1714.43 1182.38 1719.92 1176.89 1726.72 1176.89C1733.51 1176.89 1739 1182.38 1739 1189.14C1739 1195.9 1733.51 1201.39 1726.72 1201.39C1719.92 1201.39 1714.43 1195.9 1714.43 1189.14Z" stroke="black" stroke-width="4"/>
</g>
<mask id="mask8_30_2877" style="mask-type:alpha" maskUnits="userSpaceOnUse" x="1809" y="1270" width="31" height="20">
<rect x="1839.76" y="1289.32" width="29.8373" height="18.443" transform="rotate(180 1839.76 1289.32)" fill="#D9D9D9"/>
</mask>
<g mask="url(#mask8_30_2877)">
<path d="M1811.92 1286.39C1811.92 1279.63 1817.42 1274.14 1824.21 1274.14C1831 1274.14 1836.5 1279.63 1836.5 1286.39C1836.5 1293.15 1831 1298.64 1824.21 1298.64C1817.42 1298.64 1811.92 1293.15 1811.92 1286.39Z" stroke="black" stroke-width="4"/>
</g>
<mask id="mask9_30_2877" style="mask-type:alpha" maskUnits="userSpaceOnUse" x="1908" y="1270" width="31" height="20">
<rect x="1938.53" y="1289.32" width="29.8373" height="18.443" transform="rotate(180 1938.53 1289.32)" fill="#D9D9D9"/>
</mask>
<g mask="url(#mask9_30_2877)">
<path d="M1910.68 1286.39C1910.68 1279.63 1916.17 1274.14 1922.97 1274.14C1929.76 1274.14 1935.25 1279.63 1935.25 1286.39C1935.25 1293.15 1929.76 1298.64 1922.97 1298.64C1916.17 1298.64 1910.68 1293.15 1910.68 1286.39Z" stroke="black" stroke-width="4"/>
</g>
<mask id="mask10_30_2877" style="mask-type:alpha" maskUnits="userSpaceOnUse" x="2006" y="1270" width="31" height="20">
<rect x="2036.01" y="1289.32" width="29.8373" height="18.443" transform="rotate(180 2036.01 1289.32)" fill="#D9D9D9"/>
</mask>
<g mask="url(#mask10_30_2877)">
<path d="M2008.16 1286.39C2008.16 1279.63 2013.66 1274.14 2020.45 1274.14C2027.24 1274.14 2032.74 1279.63 2032.74 1286.39C2032.74 1293.15 2027.24 1298.64 2020.45 1298.64C2013.66 1298.64 2008.16 1293.15 2008.16 1286.39Z" stroke="black" stroke-width="4"/>
</g>
<mask id="mask11_30_2877" style="mask-type:alpha" maskUnits="userSpaceOnUse" x="2103" y="1270" width="31" height="20">
<rect x="2133.51" y="1289.32" width="29.8373" height="18.443" transform="rotate(180 2133.51 1289.32)" fill="#D9D9D9"/>
</mask>
<g mask="url(#mask11_30_2877)">
<path d="M2105.66 1286.39C2105.66 1279.63 2111.16 1274.14 2117.95 1274.14C2124.74 1274.14 2130.24 1279.63 2130.24 1286.39C2130.24 1293.15 2124.74 1298.64 2117.95 1298.64C2111.16 1298.64 2105.66 1293.15 2105.66 1286.39Z" stroke="black" stroke-width="4"/>
</g>
<mask id="mask12_30_2877" style="mask-type:alpha" maskUnits="userSpaceOnUse" x="1712" y="1270" width="31" height="20">
<rect x="1742.28" y="1289.32" width="29.8373" height="18.443" transform="rotate(180 1742.28 1289.32)" fill="#D9D9D9"/>
</mask>
<g mask="url(#mask12_30_2877)">
<path d="M1714.43 1286.39C1714.43 1279.63 1719.92 1274.14 1726.72 1274.14C1733.51 1274.14 1739 1279.63 1739 1286.39C1739 1293.15 1733.51 1298.64 1726.72 1298.64C1719.92 1298.64 1714.43 1293.15 1714.43 1286.39Z" stroke="black" stroke-width="4"/>
</g>
<mask id="mask13_30_2877" style="mask-type:alpha" maskUnits="userSpaceOnUse" x="1808" y="1368" width="31" height="19">
<rect x="1838.52" y="1386.57" width="29.8373" height="18.443" transform="rotate(180 1838.52 1386.57)" fill="#D9D9D9"/>
</mask>
<g mask="url(#mask13_30_2877)">
<path d="M1810.67 1383.63C1810.67 1376.87 1816.16 1371.38 1822.95 1371.38C1829.75 1371.38 1835.24 1376.87 1835.24 1383.63C1835.24 1390.39 1829.75 1395.88 1822.95 1395.88C1816.16 1395.88 1810.67 1390.39 1810.67 1383.63Z" stroke="black" stroke-width="4"/>
</g>
<mask id="mask14_30_2877" style="mask-type:alpha" maskUnits="userSpaceOnUse" x="1908" y="1368" width="31" height="19">
<rect x="1938.09" y="1386.57" width="29.8373" height="18.443" transform="rotate(180 1938.09 1386.57)" fill="#D9D9D9"/>
</mask>
<g mask="url(#mask14_30_2877)">
<path d="M1910.24 1383.63C1910.24 1376.87 1915.73 1371.38 1922.52 1371.38C1929.32 1371.38 1934.81 1376.87 1934.81 1383.63C1934.81 1390.39 1929.32 1395.88 1922.52 1395.88C1915.73 1395.88 1910.24 1390.39 1910.24 1383.63Z" stroke="black" stroke-width="4"/>
</g>
<mask id="mask15_30_2877" style="mask-type:alpha" maskUnits="userSpaceOnUse" x="2005" y="1368" width="31" height="19">
<rect x="2035.59" y="1386.57" width="29.8373" height="18.443" transform="rotate(180 2035.59 1386.57)" fill="#D9D9D9"/>
</mask>
<g mask="url(#mask15_30_2877)">
<path d="M2007.74 1383.63C2007.74 1376.87 2013.24 1371.38 2020.03 1371.38C2026.82 1371.38 2032.32 1376.87 2032.32 1383.63C2032.32 1390.39 2026.82 1395.88 2020.03 1395.88C2013.24 1395.88 2007.74 1390.39 2007.74 1383.63Z" stroke="black" stroke-width="4"/>
</g>
<mask id="mask16_30_2877" style="mask-type:alpha" maskUnits="userSpaceOnUse" x="2102" y="1368" width="31" height="19">
<rect x="2132.25" y="1386.57" width="29.8373" height="18.443" transform="rotate(180 2132.25 1386.57)" fill="#D9D9D9"/>
</mask>
<g mask="url(#mask16_30_2877)">
<path d="M2104.4 1383.63C2104.4 1376.87 2109.89 1371.38 2116.68 1371.38C2123.48 1371.38 2128.97 1376.87 2128.97 1383.63C2128.97 1390.39 2123.48 1395.88 2116.68 1395.88C2109.89 1395.88 2104.4 1390.39 2104.4 1383.63Z" stroke="black" stroke-width="4"/>
</g>
<mask id="mask17_30_2877" style="mask-type:alpha" maskUnits="userSpaceOnUse" x="1712" y="1368" width="30" height="19">
<rect x="1741.85" y="1386.57" width="29.8373" height="18.443" transform="rotate(180 1741.85 1386.57)" fill="#D9D9D9"/>
</mask>
<g mask="url(#mask17_30_2877)">
<path d="M1714 1383.63C1714 1376.87 1719.5 1371.38 1726.29 1371.38C1733.08 1371.38 1738.58 1376.87 1738.58 1383.63C1738.58 1390.39 1733.08 1395.88 1726.29 1395.88C1719.5 1395.88 1714 1390.39 1714 1383.63Z" stroke="black" stroke-width="4"/>
</g>
<mask id="mask18_30_2877" style="mask-type:alpha" maskUnits="userSpaceOnUse" x="1809" y="1465" width="31" height="19">
<rect x="1839.76" y="1483.81" width="29.8373" height="18.443" transform="rotate(180 1839.76 1483.81)" fill="#D9D9D9"/>
</mask>
<g mask="url(#mask18_30_2877)">
<path d="M1811.92 1480.88C1811.92 1474.12 1817.42 1468.63 1824.21 1468.63C1831 1468.63 1836.5 1474.12 1836.5 1480.88C1836.5 1487.64 1831 1493.13 1824.21 1493.13C1817.42 1493.13 1811.92 1487.64 1811.92 1480.88Z" stroke="black" stroke-width="4"/>
</g>
<mask id="mask19_30_2877" style="mask-type:alpha" maskUnits="userSpaceOnUse" x="1909" y="1465" width="30" height="19">
<rect x="1938.93" y="1483.81" width="29.8373" height="18.443" transform="rotate(180 1938.93 1483.81)" fill="#D9D9D9"/>
</mask>
<g mask="url(#mask19_30_2877)">
<path d="M1911.08 1480.88C1911.08 1474.12 1916.58 1468.63 1923.37 1468.63C1930.16 1468.63 1935.66 1474.12 1935.66 1480.88C1935.66 1487.64 1930.16 1493.13 1923.37 1493.13C1916.58 1493.13 1911.08 1487.64 1911.08 1480.88Z" stroke="black" stroke-width="4"/>
</g>
<mask id="mask20_30_2877" style="mask-type:alpha" maskUnits="userSpaceOnUse" x="2006" y="1465" width="31" height="19">
<rect x="2036.01" y="1483.81" width="29.8373" height="18.443" transform="rotate(180 2036.01 1483.81)" fill="#D9D9D9"/>
</mask>
<g mask="url(#mask20_30_2877)">
<path d="M2008.16 1480.88C2008.16 1474.12 2013.66 1468.63 2020.45 1468.63C2027.24 1468.63 2032.74 1474.12 2032.74 1480.88C2032.74 1487.64 2027.24 1493.13 2020.45 1493.13C2013.66 1493.13 2008.16 1487.64 2008.16 1480.88Z" stroke="black" stroke-width="4"/>
</g>
<line x1="1925.8" y1="1043.28" x2="1925.8" y2="917.529" stroke="black" stroke-width="6"/>
<line x1="1824.74" y1="1065.49" x2="1824.74" y2="939.74" stroke="black" stroke-width="4"/>
<line x1="1726.82" y1="1145.54" x2="1726.82" y2="1019.8" stroke="black" stroke-width="4"/>
<line x1="2019.31" y1="1063.39" x2="2019.31" y2="937.645" stroke="black" stroke-width="4"/>
<line x1="2117.23" y1="1138.84" x2="2117.23" y2="1013.09" stroke="black" stroke-width="4"/>
<line x1="1679.23" y1="1287.96" x2="1553.16" y2="1287.96" stroke="black" stroke-width="4"/>
<line x1="1701.51" y1="1385.21" x2="1575.43" y2="1385.21" stroke="black" stroke-width="4"/>
<line x1="1781.77" y1="1481.21" x2="1655.69" y2="1481.21" stroke="black" stroke-width="4"/>
<line x1="1701.08" y1="1190.72" x2="1573.33" y2="1190.72" stroke="black" stroke-width="4"/>
<line x1="1779.68" y1="1093.48" x2="1648.98" y2="1093.48" stroke="black" stroke-width="4"/>
<line x1="2169.68" y1="1286.9" x2="2295.75" y2="1286.9" stroke="black" stroke-width="4"/>
<line x1="2147.4" y1="1190.07" x2="2273.48" y2="1190.07" stroke="black" stroke-width="4"/>
<line x1="2067.14" y1="1092.41" x2="2193.22" y2="1092.41" stroke="black" stroke-width="4"/>
<line x1="2149.51" y1="1384.14" x2="2275.58" y2="1384.14" stroke="black" stroke-width="4"/>
<line x1="2071.77" y1="1481.8" x2="2199.94" y2="1481.8" stroke="black" stroke-width="4"/>
<line x1="1923.62" y1="1532.84" x2="1923.62" y2="1658.59" stroke="black" stroke-width="8"/>
<path d="M2021.18 1477.91L2021.18 1615.2" stroke="black" stroke-width="4"/>
<line x1="2118.03" y1="1430.48" x2="2118.03" y2="1505.37" stroke="black" stroke-width="4"/>
<line x1="1825.98" y1="1477.91" x2="1825.98" y2="1616.45" stroke="black" stroke-width="4"/>
<line x1="1727.39" y1="1430.48" x2="1727.39" y2="1510.36" stroke="black" stroke-width="4"/>
<circle cx="1536.41" cy="1189.37" r="37.1207" transform="rotate(-90 1536.41 1189.37)" stroke="black" stroke-width="4"/>
<circle cx="1610.5" cy="1093.94" r="37.1207" transform="rotate(-90 1610.5 1093.94)" stroke="black" stroke-width="4"/>
<circle cx="1503.84" cy="1290.19" r="47.8441" transform="rotate(90 1503.84 1290.19)" stroke="black" stroke-width="4"/>
<circle cx="2311.16" cy="1188.79" r="37.1207" transform="rotate(-180 2311.16 1188.79)" stroke="black" stroke-width="4"/>
<circle cx="2231.29" cy="1092.69" r="37.1207" transform="rotate(-180 2231.29 1092.69)" stroke="black" stroke-width="4"/>
<circle cx="1727.56" cy="981.361" r="37.1207" transform="rotate(-90 1727.56 981.361)" stroke="black" stroke-width="4"/>
<circle cx="1825.66" cy="900.484" r="37.1207" transform="rotate(-90 1825.66 900.484)" stroke="black" stroke-width="4"/>
<circle cx="2019.12" cy="898.987" r="37.1207" stroke="black" stroke-width="4"/>
<circle cx="2114.72" cy="974.12" r="37.1207" stroke="black" stroke-width="4"/>
<circle cx="2345.6" cy="1285.63" r="47.8441" transform="rotate(90 2345.6 1285.63)" stroke="black" stroke-width="4"/>
<circle cx="2854.5" cy="2748.5" r="94.5" transform="rotate(90 2854.5 2748.5)" stroke="black" stroke-width="8"/>
<circle cx="2660.5" cy="2054.5" r="94.5" transform="rotate(90 2660.5 2054.5)" stroke="black" stroke-width="8"/>
<circle cx="2680.5" cy="2982.5" r="94.5" transform="rotate(90 2680.5 2982.5)" stroke="black" stroke-width="8"/>
<circle cx="1928" cy="2524" r="578.5" stroke="black" stroke-width="11"/>
<line x1="1580" y1="2059" x2="2276" y2="2059" stroke="black" stroke-width="8"/>
<line x1="1395" y1="2291" x2="2461" y2="2291" stroke="black" stroke-width="8"/>
<rect x="1658" y="2278" width="63" height="26" fill="white"/>
<rect x="1427" y="2278" width="63" height="26" fill="white"/>
<rect x="1894" y="2278" width="63" height="26" fill="white"/>
<rect x="2125" y="2276" width="63" height="19" fill="white"/>
<rect x="2357" y="2281" width="63" height="19" fill="white"/>
<rect x="1658" y="2047" width="63" height="26" fill="white"/>
<rect x="1427" y="2047" width="63" height="26" fill="white"/>
<rect x="1894" y="2047" width="63" height="26" fill="white"/>
<rect x="2125" y="2045" width="63" height="19" fill="white"/>
<rect x="2357" y="2050" width="63" height="19" fill="white"/>
<line x1="1344" y1="2523" x2="2510" y2="2523" stroke="black" stroke-width="8"/>
<rect x="1658" y="2506" width="63" height="26" fill="white"/>
<rect x="1427" y="2506" width="63" height="26" fill="white"/>
<rect x="1894" y="2506" width="63" height="26" fill="white"/>
<rect x="2125" y="2509" width="63" height="19" fill="white"/>
<rect x="2357" y="2509" width="63" height="19" fill="white"/>
<line x1="1396" y1="2755" x2="2455" y2="2755" stroke="black" stroke-width="8"/>
<rect x="1654" y="2743" width="63" height="26" fill="white"/>
<rect x="1423" y="2743" width="63" height="26" fill="white"/>
<rect x="1890" y="2743" width="63" height="26" fill="white"/>
<rect x="2121" y="2746" width="63" height="19" fill="white"/>
<rect x="2353" y="2746" width="63" height="19" fill="white"/>
<line x1="1581" y1="2987" x2="2271" y2="2987" stroke="black" stroke-width="8"/>
<rect x="1658" y="2974" width="63" height="26" fill="white"/>
<rect x="1427" y="2974" width="63" height="26" fill="white"/>
<rect x="1894" y="2974" width="63" height="26" fill="white"/>
<rect x="2125" y="2977" width="63" height="19" fill="white"/>
<rect x="2357" y="2977" width="63" height="19" fill="white"/>
<line x1="2387" y1="2169" x2="2387" y2="2877" stroke="black" stroke-width="8"/>
<line x1="2155" y1="1989" x2="2155" y2="3059" stroke="black" stroke-width="8"/>
<line x1="1923" y1="1942" x2="1923" y2="3108" stroke="black" stroke-width="8"/>
<line x1="1691" y1="1994" x2="1691" y2="3053" stroke="black" stroke-width="8"/>
<line x1="1459" y1="2184" x2="1459" y2="2864" stroke="black" stroke-width="8"/>
<mask id="mask21_30_2877" style="mask-type:alpha" maskUnits="userSpaceOnUse" x="1655" y="2251" width="71" height="44">
<rect x="1726" y="2295" width="71" height="44" transform="rotate(180 1726 2295)" fill="#D9D9D9"/>
</mask>
<g mask="url(#mask21_30_2877)">
<circle cx="1689" cy="2288" r="32" transform="rotate(180 1689 2288)" stroke="black" stroke-width="4"/>
</g>
<mask id="mask22_30_2877" style="mask-type:alpha" maskUnits="userSpaceOnUse" x="1890" y="2251" width="71" height="44">
<rect x="1961" y="2295" width="71" height="44" transform="rotate(180 1961 2295)" fill="#D9D9D9"/>
</mask>
<g mask="url(#mask22_30_2877)">
<circle cx="1924" cy="2288" r="32" transform="rotate(180 1924 2288)" stroke="black" stroke-width="4"/>
</g>
<mask id="mask23_30_2877" style="mask-type:alpha" maskUnits="userSpaceOnUse" x="2122" y="2251" width="71" height="44">
<rect x="2193" y="2295" width="71" height="44" transform="rotate(180 2193 2295)" fill="#D9D9D9"/>
</mask>
<g mask="url(#mask23_30_2877)">
<circle cx="2156" cy="2288" r="32" transform="rotate(180 2156 2288)" stroke="black" stroke-width="4"/>
</g>
<mask id="mask24_30_2877" style="mask-type:alpha" maskUnits="userSpaceOnUse" x="1655" y="2019" width="71" height="44">
<rect x="1726" y="2063" width="71" height="44" transform="rotate(180 1726 2063)" fill="#D9D9D9"/>
</mask>
<g mask="url(#mask24_30_2877)">
<circle cx="1689" cy="2056" r="32" transform="rotate(180 1689 2056)" stroke="black" stroke-width="4"/>
</g>
<mask id="mask25_30_2877" style="mask-type:alpha" maskUnits="userSpaceOnUse" x="1890" y="2019" width="71" height="44">
<rect x="1961" y="2063" width="71" height="44" transform="rotate(180 1961 2063)" fill="#D9D9D9"/>
</mask>
<g mask="url(#mask25_30_2877)">
<circle cx="1924" cy="2056" r="32" transform="rotate(180 1924 2056)" stroke="black" stroke-width="4"/>
</g>
<mask id="mask26_30_2877" style="mask-type:alpha" maskUnits="userSpaceOnUse" x="2122" y="2019" width="71" height="44">
<rect x="2193" y="2063" width="71" height="44" transform="rotate(180 2193 2063)" fill="#D9D9D9"/>
</mask>
<g mask="url(#mask26_30_2877)">
<circle cx="2156" cy="2056" r="32" transform="rotate(180 2156 2056)" stroke="black" stroke-width="4"/>
</g>
<mask id="mask27_30_2877" style="mask-type:alpha" maskUnits="userSpaceOnUse" x="2354" y="2251" width="71" height="44">
<rect x="2425" y="2295" width="71" height="44" transform="rotate(180 2425 2295)" fill="#D9D9D9"/>
</mask>
<g mask="url(#mask27_30_2877)">
<circle cx="2388" cy="2288" r="32" transform="rotate(180 2388 2288)" stroke="black" stroke-width="4"/>
</g>
<mask id="mask28_30_2877" style="mask-type:alpha" maskUnits="userSpaceOnUse" x="1423" y="2251" width="71" height="44">
<rect x="1494" y="2295" width="71" height="44" transform="rotate(180 1494 2295)" fill="#D9D9D9"/>
</mask>
<g mask="url(#mask28_30_2877)">
<circle cx="1457" cy="2288" r="32" transform="rotate(180 1457 2288)" stroke="black" stroke-width="4"/>
</g>
<mask id="mask29_30_2877" style="mask-type:alpha" maskUnits="userSpaceOnUse" x="1655" y="2483" width="71" height="44">
<rect x="1726" y="2527" width="71" height="44" transform="rotate(180 1726 2527)" fill="#D9D9D9"/>
</mask>
<g mask="url(#mask29_30_2877)">
<circle cx="1689" cy="2520" r="32" transform="rotate(180 1689 2520)" stroke="black" stroke-width="4"/>
</g>
<mask id="mask30_30_2877" style="mask-type:alpha" maskUnits="userSpaceOnUse" x="1890" y="2483" width="71" height="44">
<rect x="1961" y="2527" width="71" height="44" transform="rotate(180 1961 2527)" fill="#D9D9D9"/>
</mask>
<g mask="url(#mask30_30_2877)">
<circle cx="1924" cy="2520" r="32" transform="rotate(180 1924 2520)" stroke="black" stroke-width="4"/>
</g>
<mask id="mask31_30_2877" style="mask-type:alpha" maskUnits="userSpaceOnUse" x="2122" y="2483" width="71" height="44">
<rect x="2193" y="2527" width="71" height="44" transform="rotate(180 2193 2527)" fill="#D9D9D9"/>
</mask>
<g mask="url(#mask31_30_2877)">
<circle cx="2156" cy="2520" r="32" transform="rotate(180 2156 2520)" stroke="black" stroke-width="4"/>
</g>
<mask id="mask32_30_2877" style="mask-type:alpha" maskUnits="userSpaceOnUse" x="2354" y="2483" width="71" height="44">
<rect x="2425" y="2527" width="71" height="44" transform="rotate(180 2425 2527)" fill="#D9D9D9"/>
</mask>
<g mask="url(#mask32_30_2877)">
<circle cx="2388" cy="2520" r="32" transform="rotate(180 2388 2520)" stroke="black" stroke-width="4"/>
</g>
<mask id="mask33_30_2877" style="mask-type:alpha" maskUnits="userSpaceOnUse" x="1423" y="2483" width="71" height="44">
<rect x="1494" y="2527" width="71" height="44" transform="rotate(180 1494 2527)" fill="#D9D9D9"/>
</mask>
<g mask="url(#mask33_30_2877)">
<circle cx="1457" cy="2520" r="32" transform="rotate(180 1457 2520)" stroke="black" stroke-width="4"/>
</g>
<mask id="mask34_30_2877" style="mask-type:alpha" maskUnits="userSpaceOnUse" x="1652" y="2715" width="71" height="44">
<rect x="1723" y="2759" width="71" height="44" transform="rotate(180 1723 2759)" fill="#D9D9D9"/>
</mask>
<g mask="url(#mask34_30_2877)">
<circle cx="1686" cy="2752" r="32" transform="rotate(180 1686 2752)" stroke="black" stroke-width="4"/>
</g>
<mask id="mask35_30_2877" style="mask-type:alpha" maskUnits="userSpaceOnUse" x="1889" y="2715" width="71" height="44">
<rect x="1960" y="2759" width="71" height="44" transform="rotate(180 1960 2759)" fill="#D9D9D9"/>
</mask>
<g mask="url(#mask35_30_2877)">
<circle cx="1923" cy="2752" r="32" transform="rotate(180 1923 2752)" stroke="black" stroke-width="4"/>
</g>
<mask id="mask36_30_2877" style="mask-type:alpha" maskUnits="userSpaceOnUse" x="2121" y="2715" width="71" height="44">
<rect x="2192" y="2759" width="71" height="44" transform="rotate(180 2192 2759)" fill="#D9D9D9"/>
</mask>
<g mask="url(#mask36_30_2877)">
<circle cx="2155" cy="2752" r="32" transform="rotate(180 2155 2752)" stroke="black" stroke-width="4"/>
</g>
<mask id="mask37_30_2877" style="mask-type:alpha" maskUnits="userSpaceOnUse" x="2351" y="2715" width="71" height="44">
<rect x="2422" y="2759" width="71" height="44" transform="rotate(180 2422 2759)" fill="#D9D9D9"/>
</mask>
<g mask="url(#mask37_30_2877)">
<circle cx="2385" cy="2752" r="32" transform="rotate(180 2385 2752)" stroke="black" stroke-width="4"/>
</g>
<mask id="mask38_30_2877" style="mask-type:alpha" maskUnits="userSpaceOnUse" x="1422" y="2715" width="71" height="44">
<rect x="1493" y="2759" width="71" height="44" transform="rotate(180 1493 2759)" fill="#D9D9D9"/>
</mask>
<g mask="url(#mask38_30_2877)">
<circle cx="1456" cy="2752" r="32" transform="rotate(180 1456 2752)" stroke="black" stroke-width="4"/>
</g>
<mask id="mask39_30_2877" style="mask-type:alpha" maskUnits="userSpaceOnUse" x="1655" y="2947" width="71" height="44">
<rect x="1726" y="2991" width="71" height="44" transform="rotate(180 1726 2991)" fill="#D9D9D9"/>
</mask>
<g mask="url(#mask39_30_2877)">
<circle cx="1689" cy="2984" r="32" transform="rotate(180 1689 2984)" stroke="black" stroke-width="4"/>
</g>
<mask id="mask40_30_2877" style="mask-type:alpha" maskUnits="userSpaceOnUse" x="1891" y="2947" width="71" height="44">
<rect x="1962" y="2991" width="71" height="44" transform="rotate(180 1962 2991)" fill="#D9D9D9"/>
</mask>
<g mask="url(#mask40_30_2877)">
<circle cx="1925" cy="2984" r="32" transform="rotate(180 1925 2984)" stroke="black" stroke-width="4"/>
</g>
<mask id="mask41_30_2877" style="mask-type:alpha" maskUnits="userSpaceOnUse" x="2122" y="2947" width="71" height="44">
<rect x="2193" y="2991" width="71" height="44" transform="rotate(180 2193 2991)" fill="#D9D9D9"/>
</mask>
<g mask="url(#mask41_30_2877)">
<circle cx="2156" cy="2984" r="32" transform="rotate(180 2156 2984)" stroke="black" stroke-width="4"/>
</g>
<line x1="1924" y1="1940" x2="1924" y2="1640" stroke="black" stroke-width="8"/>
<line x1="1691" y1="1993" x2="1691" y2="1693" stroke="black" stroke-width="8"/>
<line x1="1458" y1="2184" x2="1458" y2="1884" stroke="black" stroke-width="8"/>
<line x1="2154" y1="1988" x2="2154" y2="1688" stroke="black" stroke-width="8"/>
<line x1="2387" y1="2168" x2="2387" y2="1868" stroke="black" stroke-width="8"/>
<line x1="1344" y1="2523" x2="1044" y2="2523" stroke="black" stroke-width="8"/>
<line x1="1397" y1="2755" x2="1097" y2="2755" stroke="black" stroke-width="8"/>
<line x1="1588" y1="2987" x2="1288" y2="2987" stroke="black" stroke-width="8"/>
<line x1="1396" y1="2291" x2="1092" y2="2291" stroke="black" stroke-width="8"/>
<line x1="1583" y1="2059" x2="1272" y2="2059" stroke="black" stroke-width="8"/>
<line x1="2511" y1="2522" x2="2811" y2="2522" stroke="black" stroke-width="8"/>
<line x1="2458" y1="2291" x2="2758" y2="2291" stroke="black" stroke-width="8"/>
<line x1="2267" y1="2058" x2="2567" y2="2058" stroke="black" stroke-width="8"/>
<line x1="2463" y1="2754" x2="2763" y2="2754" stroke="black" stroke-width="8"/>
<line x1="2278" y1="2987" x2="2583" y2="2987" stroke="black" stroke-width="8"/>
<line x1="1923" y1="3108" x2="1923" y2="3408" stroke="black" stroke-width="8"/>
<path d="M2155 3055L2155 3355" stroke="black" stroke-width="8"/>
<line x1="2387" y1="2864" x2="2387" y2="3164" stroke="black" stroke-width="8"/>
<line x1="1691" y1="3053" x2="1691" y2="3360" stroke="black" stroke-width="8"/>
<line x1="1458" y1="2863" x2="1458" y2="3180" stroke="black" stroke-width="8"/>
<circle cx="1692.5" cy="1595.5" r="94.5" stroke="black" stroke-width="8"/>
<circle cx="2156.5" cy="1595.5" r="94.5" stroke="black" stroke-width="8"/>
<circle cx="1462.5" cy="1789.5" r="94.5" stroke="black" stroke-width="8"/>
<circle cx="2390.5" cy="1769.5" r="94.5" stroke="black" stroke-width="8"/>
<circle cx="2160.5" cy="3451.5" r="94.5" transform="rotate(-180 2160.5 3451.5)" stroke="black" stroke-width="8"/>
<circle cx="1696.5" cy="3451.5" r="94.5" transform="rotate(-180 1696.5 3451.5)" stroke="black" stroke-width="8"/>
<circle cx="2390.5" cy="3257.5" r="94.5" transform="rotate(-180 2390.5 3257.5)" stroke="black" stroke-width="8"/>
<circle cx="1462.5" cy="3277.5" r="94.5" transform="rotate(-180 1462.5 3277.5)" stroke="black" stroke-width="8"/>
<path d="M2072.8 692.62C2072.8 774.15 2006.53 840.248 1924.79 840.248C1843.04 840.248 1776.77 774.15 1776.77 692.62C1776.77 611.09 1843.04 544.992 1924.79 544.992C2006.53 544.992 2072.8 611.09 2072.8 692.62Z" stroke="black" stroke-width="2"/>
<line x1="1836" y1="574.296" x2="2013.59" y2="574.296" stroke="black" stroke-width="2"/>
<line x1="1788.8" y1="633.339" x2="2060.8" y2="633.339" stroke="black" stroke-width="2"/>
<rect x="1855.91" y="630.013" width="16.075" height="6.617" fill="white"/>
<rect x="1796.96" y="630.013" width="16.075" height="6.617" fill="white"/>
<rect x="1916.12" y="630.013" width="16.075" height="6.617" fill="white"/>
<rect x="1975.06" y="629.502" width="16.075" height="4.8355" fill="white"/>
<rect x="2034.27" y="630.777" width="16.075" height="4.8355" fill="white"/>
<rect x="1855.91" y="571.222" width="16.075" height="6.617" fill="white"/>
<rect x="1796.96" y="571.222" width="16.075" height="6.617" fill="white"/>
<rect x="1916.12" y="571.222" width="16.075" height="6.617" fill="white"/>
<rect x="1975.06" y="570.711" width="16.075" height="4.8355" fill="white"/>
<rect x="2034.27" y="571.986" width="16.075" height="4.8355" fill="white"/>
<line x1="1775.79" y1="692.385" x2="2073.3" y2="692.385" stroke="black" stroke-width="2"/>
<rect x="1855.91" y="688.036" width="16.075" height="6.617" fill="white"/>
<rect x="1796.96" y="688.036" width="16.075" height="6.617" fill="white"/>
<rect x="1916.12" y="688.036" width="16.075" height="6.617" fill="white"/>
<rect x="1975.06" y="688.802" width="16.075" height="4.8355" fill="white"/>
<rect x="2034.27" y="688.802" width="16.075" height="4.8355" fill="white"/>
<line x1="1789.05" y1="751.429" x2="2059.27" y2="751.429" stroke="black" stroke-width="2"/>
<rect x="1854.89" y="748.354" width="16.075" height="6.617" fill="white"/>
<rect x="1795.95" y="748.354" width="16.075" height="6.617" fill="white"/>
<rect x="1915.11" y="748.354" width="16.075" height="6.617" fill="white"/>
<rect x="1974.05" y="749.12" width="16.075" height="4.8355" fill="white"/>
<rect x="2033.25" y="749.12" width="16.075" height="4.8355" fill="white"/>
<line x1="1836.39" y1="810.68" x2="2013.71" y2="810.68" stroke="black" stroke-width="2"/>
<rect x="1855.91" y="807.146" width="16.075" height="6.617" fill="white"/>
<rect x="1796.96" y="807.146" width="16.075" height="6.617" fill="white"/>
<rect x="1916.12" y="807.146" width="16.075" height="6.617" fill="white"/>
<rect x="1975.06" y="807.911" width="16.075" height="4.8355" fill="white"/>
<rect x="2034.27" y="807.911" width="16.075" height="4.8355" fill="white"/>
<line x1="2041.88" y1="602.271" x2="2041.88" y2="782.458" stroke="black" stroke-width="2"/>
<line x1="1982.69" y1="556.463" x2="1982.69" y2="828.778" stroke="black" stroke-width="2"/>
<line x1="1924.99" y1="544.498" x2="1924.99" y2="841.245" stroke="black" stroke-width="5"/>
<line x1="1864.3" y1="557.732" x2="1864.3" y2="827.248" stroke="black" stroke-width="2"/>
<line x1="1805.09" y1="606.088" x2="1805.09" y2="779.148" stroke="black" stroke-width="2"/>
<mask id="mask42_30_2877" style="mask-type:alpha" maskUnits="userSpaceOnUse" x="1855" y="623" width="19" height="12">
<rect x="1873.25" y="634.337" width="18.1163" height="11.198" transform="rotate(180 1873.25 634.337)" fill="#D9D9D9"/>
</mask>
<g mask="url(#mask42_30_2877)">
<path d="M1856.12 632.556C1856.12 628.332 1859.56 624.903 1863.8 624.903C1868.04 624.903 1871.47 628.332 1871.47 632.556C1871.47 636.78 1868.04 640.209 1863.8 640.209C1859.56 640.209 1856.12 636.78 1856.12 632.556Z" stroke="black" stroke-width="2"/>
</g>
<mask id="mask43_30_2877" style="mask-type:alpha" maskUnits="userSpaceOnUse" x="1915" y="623" width="19" height="12">
<rect x="1933.21" y="634.339" width="18.1163" height="11.198" transform="rotate(180 1933.21 634.339)" fill="#D9D9D9"/>
</mask>
<g mask="url(#mask43_30_2877)">
<path d="M1916.09 632.558C1916.09 628.334 1919.53 624.905 1923.77 624.905C1928.01 624.905 1931.45 628.334 1931.45 632.558C1931.45 636.782 1928.01 640.211 1923.77 640.211C1919.53 640.211 1916.09 636.782 1916.09 632.558Z" stroke="black" stroke-width="2"/>
</g>
<mask id="mask44_30_2877" style="mask-type:alpha" maskUnits="userSpaceOnUse" x="1974" y="623" width="19" height="12">
<rect x="1992.4" y="634.339" width="18.1163" height="11.198" transform="rotate(180 1992.4 634.339)" fill="#D9D9D9"/>
</mask>
<g mask="url(#mask44_30_2877)">
<path d="M1975.28 632.558C1975.28 628.334 1978.71 624.905 1982.95 624.905C1987.19 624.905 1990.63 628.334 1990.63 632.558C1990.63 636.782 1987.19 640.211 1982.95 640.211C1978.71 640.211 1975.28 636.782 1975.28 632.558Z" stroke="black" stroke-width="2"/>
</g>
<mask id="mask45_30_2877" style="mask-type:alpha" maskUnits="userSpaceOnUse" x="1855" y="564" width="19" height="12">
<rect x="1873.25" y="575.294" width="18.1163" height="11.198" transform="rotate(180 1873.25 575.294)" fill="#D9D9D9"/>
</mask>
<g mask="url(#mask45_30_2877)">
<path d="M1856.13 573.512C1856.13 569.288 1859.56 565.859 1863.8 565.859C1868.04 565.859 1871.48 569.288 1871.48 573.512C1871.48 577.736 1868.04 581.165 1863.8 581.165C1859.56 581.165 1856.13 577.736 1856.13 573.512Z" stroke="black" stroke-width="2"/>
</g>
<mask id="mask46_30_2877" style="mask-type:alpha" maskUnits="userSpaceOnUse" x="1915" y="564" width="19" height="12">
<rect x="1933.21" y="575.294" width="18.1163" height="11.198" transform="rotate(180 1933.21 575.294)" fill="#D9D9D9"/>
</mask>
<g mask="url(#mask46_30_2877)">
<path d="M1916.09 573.513C1916.09 569.289 1919.53 565.86 1923.77 565.86C1928.01 565.86 1931.45 569.289 1931.45 573.513C1931.45 577.737 1928.01 581.166 1923.77 581.166C1919.53 581.166 1916.09 577.737 1916.09 573.513Z" stroke="black" stroke-width="2"/>
</g>
<mask id="mask47_30_2877" style="mask-type:alpha" maskUnits="userSpaceOnUse" x="1974" y="564" width="19" height="12">
<rect x="1992.4" y="575.294" width="18.1163" height="11.198" transform="rotate(180 1992.4 575.294)" fill="#D9D9D9"/>
</mask>
<g mask="url(#mask47_30_2877)">
<path d="M1975.28 573.513C1975.28 569.289 1978.71 565.86 1982.95 565.86C1987.19 565.86 1990.63 569.289 1990.63 573.513C1990.63 577.737 1987.19 581.166 1982.95 581.166C1978.71 581.166 1975.28 577.737 1975.28 573.513Z" stroke="black" stroke-width="2"/>
</g>
<mask id="mask48_30_2877" style="mask-type:alpha" maskUnits="userSpaceOnUse" x="2033" y="623" width="19" height="12">
<rect x="2051.6" y="634.338" width="18.1163" height="11.198" transform="rotate(180 2051.6 634.338)" fill="#D9D9D9"/>
</mask>
<g mask="url(#mask48_30_2877)">
<path d="M2034.47 632.557C2034.47 628.333 2037.91 624.904 2042.15 624.904C2046.39 624.904 2049.82 628.333 2049.82 632.557C2049.82 636.781 2046.39 640.21 2042.15 640.21C2037.91 640.21 2034.47 636.781 2034.47 632.557Z" stroke="black" stroke-width="2"/>
</g>
<mask id="mask49_30_2877" style="mask-type:alpha" maskUnits="userSpaceOnUse" x="1795" y="623" width="20" height="12">
<rect x="1814.05" y="634.338" width="18.1163" height="11.198" transform="rotate(180 1814.05 634.338)" fill="#D9D9D9"/>
</mask>
<g mask="url(#mask49_30_2877)">
<path d="M1796.93 632.557C1796.93 628.333 1800.36 624.904 1804.61 624.904C1808.85 624.904 1812.28 628.333 1812.28 632.557C1812.28 636.781 1808.85 640.21 1804.61 640.21C1800.36 640.21 1796.93 636.781 1796.93 632.557Z" stroke="black" stroke-width="2"/>
</g>
<mask id="mask50_30_2877" style="mask-type:alpha" maskUnits="userSpaceOnUse" x="1855" y="682" width="19" height="12">
<rect x="1873.25" y="693.385" width="18.1163" height="11.198" transform="rotate(180 1873.25 693.385)" fill="#D9D9D9"/>
</mask>
<g mask="url(#mask50_30_2877)">
<path d="M1856.13 691.604C1856.13 687.38 1859.56 683.951 1863.8 683.951C1868.04 683.951 1871.48 687.38 1871.48 691.604C1871.48 695.828 1868.04 699.257 1863.8 699.257C1859.56 699.257 1856.13 695.828 1856.13 691.604Z" stroke="black" stroke-width="2"/>
</g>
<mask id="mask51_30_2877" style="mask-type:alpha" maskUnits="userSpaceOnUse" x="1915" y="682" width="19" height="12">
<rect x="1933.21" y="693.385" width="18.1163" height="11.198" transform="rotate(180 1933.21 693.385)" fill="#D9D9D9"/>
</mask>
<g mask="url(#mask51_30_2877)">
<path d="M1916.09 691.604C1916.09 687.38 1919.52 683.951 1923.77 683.951C1928.01 683.951 1931.44 687.38 1931.44 691.604C1931.44 695.828 1928.01 699.257 1923.77 699.257C1919.52 699.257 1916.09 695.828 1916.09 691.604Z" stroke="black" stroke-width="2"/>
</g>
<mask id="mask52_30_2877" style="mask-type:alpha" maskUnits="userSpaceOnUse" x="1974" y="682" width="19" height="12">
<rect x="1992.4" y="693.385" width="18.1163" height="11.198" transform="rotate(180 1992.4 693.385)" fill="#D9D9D9"/>
</mask>
<g mask="url(#mask52_30_2877)">
<path d="M1975.28 691.604C1975.28 687.38 1978.71 683.951 1982.95 683.951C1987.19 683.951 1990.63 687.38 1990.63 691.604C1990.63 695.828 1987.19 699.257 1982.95 699.257C1978.71 699.257 1975.28 695.828 1975.28 691.604Z" stroke="black" stroke-width="2"/>
</g>
<mask id="mask53_30_2877" style="mask-type:alpha" maskUnits="userSpaceOnUse" x="2033" y="682" width="19" height="12">
<rect x="2051.6" y="693.385" width="18.1163" height="11.198" transform="rotate(180 2051.6 693.385)" fill="#D9D9D9"/>
</mask>
<g mask="url(#mask53_30_2877)">
<path d="M2034.47 691.604C2034.47 687.38 2037.91 683.951 2042.15 683.951C2046.39 683.951 2049.82 687.38 2049.82 691.604C2049.82 695.828 2046.39 699.257 2042.15 699.257C2037.91 699.257 2034.47 695.828 2034.47 691.604Z" stroke="black" stroke-width="2"/>
</g>
<mask id="mask54_30_2877" style="mask-type:alpha" maskUnits="userSpaceOnUse" x="1795" y="682" width="20" height="12">
<rect x="1814.05" y="693.385" width="18.1163" height="11.198" transform="rotate(180 1814.05 693.385)" fill="#D9D9D9"/>
</mask>
<g mask="url(#mask54_30_2877)">
<path d="M1796.93 691.604C1796.93 687.38 1800.36 683.951 1804.61 683.951C1808.85 683.951 1812.28 687.38 1812.28 691.604C1812.28 695.828 1808.85 699.257 1804.61 699.257C1800.36 699.257 1796.93 695.828 1796.93 691.604Z" stroke="black" stroke-width="2"/>
</g>
<mask id="mask55_30_2877" style="mask-type:alpha" maskUnits="userSpaceOnUse" x="1854" y="741" width="19" height="12">
<rect x="1872.49" y="752.428" width="18.1163" height="11.198" transform="rotate(180 1872.49 752.428)" fill="#D9D9D9"/>
</mask>
<g mask="url(#mask55_30_2877)">
<path d="M1855.36 750.647C1855.36 746.423 1858.8 742.994 1863.04 742.994C1867.28 742.994 1870.71 746.423 1870.71 750.647C1870.71 754.871 1867.28 758.3 1863.04 758.3C1858.8 758.3 1855.36 754.871 1855.36 750.647Z" stroke="black" stroke-width="2"/>
</g>
<mask id="mask56_30_2877" style="mask-type:alpha" maskUnits="userSpaceOnUse" x="1914" y="741" width="19" height="12">
<rect x="1932.94" y="752.428" width="18.1163" height="11.198" transform="rotate(180 1932.94 752.428)" fill="#D9D9D9"/>
</mask>
<g mask="url(#mask56_30_2877)">
<path d="M1915.82 750.647C1915.82 746.423 1919.25 742.994 1923.49 742.994C1927.73 742.994 1931.17 746.423 1931.17 750.647C1931.17 754.871 1927.73 758.3 1923.49 758.3C1919.25 758.3 1915.82 754.871 1915.82 750.647Z" stroke="black" stroke-width="2"/>
</g>
<mask id="mask57_30_2877" style="mask-type:alpha" maskUnits="userSpaceOnUse" x="1974" y="741" width="19" height="12">
<rect x="1992.15" y="752.428" width="18.1163" height="11.198" transform="rotate(180 1992.15 752.428)" fill="#D9D9D9"/>
</mask>
<g mask="url(#mask57_30_2877)">
<path d="M1975.02 750.647C1975.02 746.423 1978.46 742.994 1982.7 742.994C1986.94 742.994 1990.37 746.423 1990.37 750.647C1990.37 754.871 1986.94 758.3 1982.7 758.3C1978.46 758.3 1975.02 754.871 1975.02 750.647Z" stroke="black" stroke-width="2"/>
</g>
<mask id="mask58_30_2877" style="mask-type:alpha" maskUnits="userSpaceOnUse" x="2032" y="741" width="19" height="12">
<rect x="2050.84" y="752.428" width="18.1163" height="11.198" transform="rotate(180 2050.84 752.428)" fill="#D9D9D9"/>
</mask>
<g mask="url(#mask58_30_2877)">
<path d="M2033.71 750.647C2033.71 746.423 2037.15 742.994 2041.39 742.994C2045.63 742.994 2049.06 746.423 2049.06 750.647C2049.06 754.871 2045.63 758.3 2041.39 758.3C2037.15 758.3 2033.71 754.871 2033.71 750.647Z" stroke="black" stroke-width="2"/>
</g>
<mask id="mask59_30_2877" style="mask-type:alpha" maskUnits="userSpaceOnUse" x="1795" y="741" width="19" height="12">
<rect x="1813.8" y="752.428" width="18.1163" height="11.198" transform="rotate(180 1813.8 752.428)" fill="#D9D9D9"/>
</mask>
<g mask="url(#mask59_30_2877)">
<path d="M1796.67 750.647C1796.67 746.423 1800.11 742.994 1804.35 742.994C1808.59 742.994 1812.02 746.423 1812.02 750.647C1812.02 754.871 1808.59 758.3 1804.35 758.3C1800.11 758.3 1796.67 754.871 1796.67 750.647Z" stroke="black" stroke-width="2"/>
</g>
<mask id="mask60_30_2877" style="mask-type:alpha" maskUnits="userSpaceOnUse" x="1855" y="800" width="19" height="12">
<rect x="1873.25" y="811.472" width="18.1163" height="11.198" transform="rotate(180 1873.25 811.472)" fill="#D9D9D9"/>
</mask>
<g mask="url(#mask60_30_2877)">
<path d="M1856.13 809.691C1856.13 805.467 1859.56 802.038 1863.8 802.038C1868.04 802.038 1871.48 805.467 1871.48 809.691C1871.48 813.915 1868.04 817.344 1863.8 817.344C1859.56 817.344 1856.13 813.915 1856.13 809.691Z" stroke="black" stroke-width="2"/>
</g>
<mask id="mask61_30_2877" style="mask-type:alpha" maskUnits="userSpaceOnUse" x="1915" y="800" width="19" height="12">
<rect x="1933.45" y="811.472" width="18.1163" height="11.198" transform="rotate(180 1933.45 811.472)" fill="#D9D9D9"/>
</mask>
<g mask="url(#mask61_30_2877)">
<path d="M1916.33 809.691C1916.33 805.467 1919.76 802.038 1924 802.038C1928.25 802.038 1931.68 805.467 1931.68 809.691C1931.68 813.915 1928.25 817.344 1924 817.344C1919.76 817.344 1916.33 813.915 1916.33 809.691Z" stroke="black" stroke-width="2"/>
</g>
<mask id="mask62_30_2877" style="mask-type:alpha" maskUnits="userSpaceOnUse" x="1974" y="800" width="19" height="12">
<rect x="1992.4" y="811.472" width="18.1163" height="11.198" transform="rotate(180 1992.4 811.472)" fill="#D9D9D9"/>
</mask>
<g mask="url(#mask62_30_2877)">
<path d="M1975.28 809.691C1975.28 805.467 1978.71 802.038 1982.95 802.038C1987.19 802.038 1990.63 805.467 1990.63 809.691C1990.63 813.915 1987.19 817.344 1982.95 817.344C1978.71 817.344 1975.28 813.915 1975.28 809.691Z" stroke="black" stroke-width="2"/>
</g>
<line x1="1925.81" y1="543.993" x2="1925.81" y2="467.643" stroke="black" stroke-width="3"/>
<line x1="1864.34" y1="557.479" x2="1864.34" y2="481.129" stroke="black" stroke-width="2"/>
<line x1="1804.88" y1="606.088" x2="1804.88" y2="529.738" stroke="black" stroke-width="2"/>
<line x1="1982.48" y1="556.206" x2="1982.48" y2="479.856" stroke="black" stroke-width="2"/>
<line x1="2041.93" y1="602.017" x2="2041.93" y2="525.667" stroke="black" stroke-width="2"/>
<line x1="1775.78" y1="692.344" x2="1699.23" y2="692.344" stroke="black" stroke-width="2"/>
<line x1="1789.3" y1="751.389" x2="1712.75" y2="751.389" stroke="black" stroke-width="2"/>
<line x1="1838.04" y1="809.675" x2="1761.49" y2="809.675" stroke="black" stroke-width="2"/>
<line x1="1789.04" y1="633.302" x2="1711.47" y2="633.302" stroke="black" stroke-width="2"/>
<line x1="1836.77" y1="574.258" x2="1757.42" y2="574.258" stroke="black" stroke-width="2"/>
<line x1="2073.56" y1="692.127" x2="2150.11" y2="692.127" stroke="black" stroke-width="2"/>
<line x1="2060.04" y1="633.337" x2="2136.59" y2="633.337" stroke="black" stroke-width="2"/>
<line x1="2011.3" y1="574.039" x2="2087.85" y2="574.039" stroke="black" stroke-width="2"/>
<line x1="2061.32" y1="751.17" x2="2137.86" y2="751.17" stroke="black" stroke-width="2"/>
<line x1="2014.11" y1="810.468" x2="2091.94" y2="810.468" stroke="black" stroke-width="2"/>
<line x1="1925.74" y1="841.246" x2="1925.74" y2="917.596" stroke="black" stroke-width="6"/>
<path d="M1983.4 807.891L1983.4 891.247" stroke="black" stroke-width="2"/>
<line x1="2041.99" y1="779.095" x2="2041.99" y2="824.562" stroke="black" stroke-width="2"/>
<line x1="1864.67" y1="807.891" x2="1864.67" y2="892.005" stroke="black" stroke-width="2"/>
<line x1="1804.8" y1="779.095" x2="1804.8" y2="827.593" stroke="black" stroke-width="2"/>
<circle cx="1689.06" cy="632.695" r="22.7528" transform="rotate(-90 1689.06 632.695)" stroke="black" stroke-width="2"/>
<circle cx="1734.05" cy="574.751" r="22.7528" transform="rotate(-90 1734.05 574.751)" stroke="black" stroke-width="2"/>
<circle cx="1669.29" cy="693.91" r="29.2638" transform="rotate(90 1669.29 693.91)" stroke="black" stroke-width="2"/>
<circle cx="2159.75" cy="632.753" r="22.7528" transform="rotate(-180 2159.75 632.753)" stroke="black" stroke-width="2"/>
<circle cx="2110.75" cy="571.753" r="22.7528" transform="rotate(-180 2110.75 571.753)" stroke="black" stroke-width="2"/>
<circle cx="1804.33" cy="506.793" r="22.7528" transform="rotate(-90 1804.33 506.793)" stroke="black" stroke-width="2"/>
<circle cx="1864.68" cy="458.294" r="22.7528" transform="rotate(-90 1864.68 458.294)" stroke="black" stroke-width="2"/>
<circle cx="1982.14" cy="456.779" r="22.7528" stroke="black" stroke-width="2"/>
<circle cx="2038.98" cy="502.004" r="22.7528" stroke="black" stroke-width="2"/>
<circle cx="2180.37" cy="691.142" r="29.2638" transform="rotate(90 2180.37 691.142)" stroke="black" stroke-width="2"/>
<path d="M2017.41 328.775C2017.41 379.455 1976.22 420.542 1925.4 420.542C1874.59 420.542 1833.39 379.455 1833.39 328.775C1833.39 278.095 1874.59 237.008 1925.4 237.008C1976.22 237.008 2017.41 278.095 2017.41 328.775Z" stroke="black"/>
<line x1="1870.29" y1="255.44" x2="1980.53" y2="255.44" stroke="black"/>
<line x1="1840.98" y1="292.095" x2="2009.84" y2="292.095" stroke="black"/>
<rect x="1882.64" y="289.91" width="9.97923" height="4.10778" fill="white"/>
<rect x="1846.05" y="289.91" width="9.97923" height="4.10778" fill="white"/>
<rect x="1920.02" y="289.91" width="9.97923" height="4.10778" fill="white"/>
<rect x="1956.61" y="289.593" width="9.97923" height="3.00184" fill="white"/>
<rect x="1993.36" y="290.385" width="9.97923" height="3.00184" fill="white"/>
<rect x="1882.64" y="253.412" width="9.97923" height="4.10778" fill="white"/>
<rect x="1846.05" y="253.412" width="9.97923" height="4.10778" fill="white"/>
<rect x="1920.02" y="253.412" width="9.97923" height="4.10778" fill="white"/>
<rect x="1956.61" y="253.095" width="9.97923" height="3.00184" fill="white"/>
<rect x="1993.36" y="253.887" width="9.97923" height="3.00184" fill="white"/>
<line x1="1832.9" y1="328.749" x2="2017.6" y2="328.749" stroke="black"/>
<rect x="1882.65" y="325.929" width="9.97923" height="4.10778" fill="white"/>
<rect x="1846.05" y="325.929" width="9.97923" height="4.10778" fill="white"/>
<rect x="1920.02" y="325.929" width="9.97923" height="4.10778" fill="white"/>
<rect x="1956.62" y="326.404" width="9.97923" height="3.00184" fill="white"/>
<rect x="1993.37" y="326.404" width="9.97923" height="3.00184" fill="white"/>
<line x1="1841.14" y1="365.403" x2="2008.89" y2="365.403" stroke="black"/>
<rect x="1882.01" y="363.374" width="9.97923" height="4.10778" fill="white"/>
<rect x="1845.42" y="363.374" width="9.97923" height="4.10778" fill="white"/>
<rect x="1919.39" y="363.374" width="9.97923" height="4.10778" fill="white"/>
<rect x="1955.98" y="363.85" width="9.97923" height="3.00184" fill="white"/>
<rect x="1992.73" y="363.85" width="9.97923" height="3.00184" fill="white"/>
<line x1="1870.53" y1="402.186" x2="1980.61" y2="402.186" stroke="black"/>
<rect x="1882.64" y="399.871" width="9.97923" height="4.10778" fill="white"/>
<rect x="1846.05" y="399.871" width="9.97923" height="4.10778" fill="white"/>
<rect x="1920.02" y="399.871" width="9.97923" height="4.10778" fill="white"/>
<rect x="1956.61" y="400.347" width="9.97923" height="3.00184" fill="white"/>
<rect x="1993.36" y="400.347" width="9.97923" height="3.00184" fill="white"/>
<line x1="1997.97" y1="272.687" x2="1997.97" y2="384.545" stroke="black"/>
<line x1="1961.23" y1="244.249" x2="1961.23" y2="413.3" stroke="black"/>
<line x1="1924.98" y1="236.822" x2="1924.98" y2="421.04" stroke="black" stroke-width="2"/>
<line x1="1887.73" y1="245.037" x2="1887.73" y2="412.35" stroke="black"/>
<line x1="1850.98" y1="275.057" x2="1850.98" y2="382.491" stroke="black"/>
<mask id="mask63_30_2877" style="mask-type:alpha" maskUnits="userSpaceOnUse" x="1882" y="285" width="12" height="8">
<rect x="1893.41" y="292.593" width="11.2464" height="6.95163" transform="rotate(180 1893.41 292.593)" fill="#D9D9D9"/>
</mask>
<g mask="url(#mask63_30_2877)">
<path d="M1882.65 291.487C1882.65 288.797 1884.84 286.615 1887.54 286.615C1890.24 286.615 1892.43 288.797 1892.43 291.487C1892.43 294.176 1890.24 296.358 1887.54 296.358C1884.84 296.358 1882.65 294.176 1882.65 291.487Z" stroke="black"/>
</g>
<mask id="mask64_30_2877" style="mask-type:alpha" maskUnits="userSpaceOnUse" x="1919" y="285" width="12" height="8">
<rect x="1930.64" y="292.594" width="11.2464" height="6.95163" transform="rotate(180 1930.64 292.594)" fill="#D9D9D9"/>
</mask>
<g mask="url(#mask64_30_2877)">
<path d="M1919.89 291.488C1919.89 288.798 1922.07 286.616 1924.77 286.616C1927.47 286.616 1929.66 288.798 1929.66 291.488C1929.66 294.177 1927.47 296.359 1924.77 296.359C1922.07 296.359 1919.89 294.177 1919.89 291.488Z" stroke="black"/>
</g>
<mask id="mask65_30_2877" style="mask-type:alpha" maskUnits="userSpaceOnUse" x="1956" y="285" width="12" height="8">
<rect x="1967.38" y="292.594" width="11.2464" height="6.95163" transform="rotate(180 1967.38 292.594)" fill="#D9D9D9"/>
</mask>
<g mask="url(#mask65_30_2877)">
<path d="M1956.62 291.488C1956.62 288.798 1958.81 286.616 1961.51 286.616C1964.21 286.616 1966.39 288.798 1966.39 291.488C1966.39 294.177 1964.21 296.359 1961.51 296.359C1958.81 296.359 1956.62 294.177 1956.62 291.488Z" stroke="black"/>
</g>
<mask id="mask66_30_2877" style="mask-type:alpha" maskUnits="userSpaceOnUse" x="1882" y="248" width="12" height="8">
<rect x="1893.41" y="255.939" width="11.2464" height="6.95163" transform="rotate(180 1893.41 255.939)" fill="#D9D9D9"/>
</mask>
<g mask="url(#mask66_30_2877)">
<path d="M1882.65 254.833C1882.65 252.144 1884.84 249.962 1887.54 249.962C1890.24 249.962 1892.43 252.144 1892.43 254.833C1892.43 257.523 1890.24 259.705 1887.54 259.705C1884.84 259.705 1882.65 257.523 1882.65 254.833Z" stroke="black"/>
</g>
<mask id="mask67_30_2877" style="mask-type:alpha" maskUnits="userSpaceOnUse" x="1919" y="248" width="12" height="8">
<rect x="1930.64" y="255.939" width="11.2464" height="6.95163" transform="rotate(180 1930.64 255.939)" fill="#D9D9D9"/>
</mask>
<g mask="url(#mask67_30_2877)">
<path d="M1919.89 254.833C1919.89 252.144 1922.07 249.962 1924.77 249.962C1927.47 249.962 1929.66 252.144 1929.66 254.833C1929.66 257.523 1927.47 259.705 1924.77 259.705C1922.07 259.705 1919.89 257.523 1919.89 254.833Z" stroke="black"/>
</g>
<mask id="mask68_30_2877" style="mask-type:alpha" maskUnits="userSpaceOnUse" x="1956" y="248" width="12" height="8">
<rect x="1967.38" y="255.939" width="11.2464" height="6.95163" transform="rotate(180 1967.38 255.939)" fill="#D9D9D9"/>
</mask>
<g mask="url(#mask68_30_2877)">
<path d="M1956.62 254.833C1956.62 252.144 1958.81 249.962 1961.51 249.962C1964.21 249.962 1966.39 252.144 1966.39 254.833C1966.39 257.523 1964.21 259.705 1961.51 259.705C1958.81 259.705 1956.62 257.523 1956.62 254.833Z" stroke="black"/>
</g>
<mask id="mask69_30_2877" style="mask-type:alpha" maskUnits="userSpaceOnUse" x="1992" y="285" width="13" height="8">
<rect x="2004.12" y="292.593" width="11.2464" height="6.95163" transform="rotate(180 2004.12 292.593)" fill="#D9D9D9"/>
</mask>
<g mask="url(#mask69_30_2877)">
<path d="M1993.37 291.487C1993.37 288.797 1995.56 286.615 1998.26 286.615C2000.96 286.615 2003.14 288.797 2003.14 291.487C2003.14 294.176 2000.96 296.358 1998.26 296.358C1995.56 296.358 1993.37 294.176 1993.37 291.487Z" stroke="black"/>
</g>
<mask id="mask70_30_2877" style="mask-type:alpha" maskUnits="userSpaceOnUse" x="1845" y="285" width="12" height="8">
<rect x="1856.66" y="292.593" width="11.2464" height="6.95163" transform="rotate(180 1856.66 292.593)" fill="#D9D9D9"/>
</mask>
<g mask="url(#mask70_30_2877)">
<path d="M1845.91 291.486C1845.91 288.796 1848.1 286.614 1850.8 286.614C1853.5 286.614 1855.68 288.796 1855.68 291.486C1855.68 294.175 1853.5 296.357 1850.8 296.357C1848.1 296.357 1845.91 294.175 1845.91 291.486Z" stroke="black"/>
</g>
<mask id="mask71_30_2877" style="mask-type:alpha" maskUnits="userSpaceOnUse" x="1882" y="322" width="12" height="8">
<rect x="1893.41" y="329.249" width="11.2464" height="6.95163" transform="rotate(180 1893.41 329.249)" fill="#D9D9D9"/>
</mask>
<g mask="url(#mask71_30_2877)">
<path d="M1882.65 328.143C1882.65 325.454 1884.84 323.271 1887.54 323.271C1890.24 323.271 1892.43 325.454 1892.43 328.143C1892.43 330.832 1890.24 333.015 1887.54 333.015C1884.84 333.015 1882.65 330.832 1882.65 328.143Z" stroke="black"/>
</g>
<mask id="mask72_30_2877" style="mask-type:alpha" maskUnits="userSpaceOnUse" x="1919" y="322" width="12" height="8">
<rect x="1930.64" y="329.249" width="11.2464" height="6.95163" transform="rotate(180 1930.64 329.249)" fill="#D9D9D9"/>
</mask>
<g mask="url(#mask72_30_2877)">
<path d="M1919.89 328.143C1919.89 325.454 1922.07 323.271 1924.77 323.271C1927.47 323.271 1929.66 325.454 1929.66 328.143C1929.66 330.832 1927.47 333.015 1924.77 333.015C1922.07 333.015 1919.89 330.832 1919.89 328.143Z" stroke="black"/>
</g>
<mask id="mask73_30_2877" style="mask-type:alpha" maskUnits="userSpaceOnUse" x="1956" y="322" width="12" height="8">
<rect x="1967.38" y="329.249" width="11.2464" height="6.95163" transform="rotate(180 1967.38 329.249)" fill="#D9D9D9"/>
</mask>
<g mask="url(#mask73_30_2877)">
<path d="M1956.62 328.143C1956.62 325.454 1958.81 323.271 1961.51 323.271C1964.21 323.271 1966.39 325.454 1966.39 328.143C1966.39 330.832 1964.21 333.015 1961.51 333.015C1958.81 333.015 1956.62 330.832 1956.62 328.143Z" stroke="black"/>
</g>
<mask id="mask74_30_2877" style="mask-type:alpha" maskUnits="userSpaceOnUse" x="1992" y="322" width="13" height="8">
<rect x="2004.12" y="329.249" width="11.2464" height="6.95163" transform="rotate(180 2004.12 329.249)" fill="#D9D9D9"/>
</mask>
<g mask="url(#mask74_30_2877)">
<path d="M1993.37 328.143C1993.37 325.454 1995.56 323.271 1998.26 323.271C2000.96 323.271 2003.14 325.454 2003.14 328.143C2003.14 330.832 2000.96 333.015 1998.26 333.015C1995.56 333.015 1993.37 330.832 1993.37 328.143Z" stroke="black"/>
</g>
<mask id="mask75_30_2877" style="mask-type:alpha" maskUnits="userSpaceOnUse" x="1845" y="322" width="12" height="8">
<rect x="1856.66" y="329.249" width="11.2464" height="6.95163" transform="rotate(180 1856.66 329.249)" fill="#D9D9D9"/>
</mask>
<g mask="url(#mask75_30_2877)">
<path d="M1845.91 328.143C1845.91 325.454 1848.1 323.271 1850.8 323.271C1853.5 323.271 1855.68 325.454 1855.68 328.143C1855.68 330.832 1853.5 333.015 1850.8 333.015C1848.1 333.015 1845.91 330.832 1845.91 328.143Z" stroke="black"/>
</g>
<mask id="mask76_30_2877" style="mask-type:alpha" maskUnits="userSpaceOnUse" x="1881" y="358" width="12" height="8">
<rect x="1892.94" y="365.903" width="11.2464" height="6.95163" transform="rotate(180 1892.94 365.903)" fill="#D9D9D9"/>
</mask>
<g mask="url(#mask76_30_2877)">
<path d="M1882.19 364.797C1882.19 362.108 1884.37 359.926 1887.07 359.926C1889.77 359.926 1891.96 362.108 1891.96 364.797C1891.96 367.487 1889.77 369.669 1887.07 369.669C1884.37 369.669 1882.19 367.487 1882.19 364.797Z" stroke="black"/>
</g>
<mask id="mask77_30_2877" style="mask-type:alpha" maskUnits="userSpaceOnUse" x="1919" y="358" width="12" height="8">
<rect x="1930.47" y="365.903" width="11.2464" height="6.95163" transform="rotate(180 1930.47 365.903)" fill="#D9D9D9"/>
</mask>
<g mask="url(#mask77_30_2877)">
<path d="M1919.72 364.797C1919.72 362.108 1921.9 359.926 1924.6 359.926C1927.3 359.926 1929.49 362.108 1929.49 364.797C1929.49 367.487 1927.3 369.669 1924.6 369.669C1921.9 369.669 1919.72 367.487 1919.72 364.797Z" stroke="black"/>
</g>
<mask id="mask78_30_2877" style="mask-type:alpha" maskUnits="userSpaceOnUse" x="1955" y="358" width="13" height="8">
<rect x="1967.22" y="365.903" width="11.2464" height="6.95163" transform="rotate(180 1967.22 365.903)" fill="#D9D9D9"/>
</mask>
<g mask="url(#mask78_30_2877)">
<path d="M1956.47 364.797C1956.47 362.108 1958.66 359.926 1961.36 359.926C1964.06 359.926 1966.24 362.108 1966.24 364.797C1966.24 367.487 1964.06 369.669 1961.36 369.669C1958.66 369.669 1956.47 367.487 1956.47 364.797Z" stroke="black"/>
</g>
<mask id="mask79_30_2877" style="mask-type:alpha" maskUnits="userSpaceOnUse" x="1992" y="358" width="12" height="8">
<rect x="2003.65" y="365.903" width="11.2464" height="6.95163" transform="rotate(180 2003.65 365.903)" fill="#D9D9D9"/>
</mask>
<g mask="url(#mask79_30_2877)">
<path d="M1992.9 364.797C1992.9 362.108 1995.09 359.926 1997.79 359.926C2000.49 359.926 2002.67 362.108 2002.67 364.797C2002.67 367.487 2000.49 369.669 1997.79 369.669C1995.09 369.669 1992.9 367.487 1992.9 364.797Z" stroke="black"/>
</g>
<mask id="mask80_30_2877" style="mask-type:alpha" maskUnits="userSpaceOnUse" x="1845" y="358" width="12" height="8">
<rect x="1856.5" y="365.903" width="11.2464" height="6.95163" transform="rotate(180 1856.5 365.903)" fill="#D9D9D9"/>
</mask>
<g mask="url(#mask80_30_2877)">
<path d="M1845.75 364.797C1845.75 362.108 1847.93 359.926 1850.63 359.926C1853.33 359.926 1855.52 362.108 1855.52 364.797C1855.52 367.487 1853.33 369.669 1850.63 369.669C1847.93 369.669 1845.75 367.487 1845.75 364.797Z" stroke="black"/>
</g>
<mask id="mask81_30_2877" style="mask-type:alpha" maskUnits="userSpaceOnUse" x="1882" y="395" width="12" height="8">
<rect x="1893.41" y="402.556" width="11.2464" height="6.95163" transform="rotate(180 1893.41 402.556)" fill="#D9D9D9"/>
</mask>
<g mask="url(#mask81_30_2877)">
<path d="M1882.65 401.45C1882.65 398.76 1884.84 396.578 1887.54 396.578C1890.24 396.578 1892.43 398.76 1892.43 401.45C1892.43 404.139 1890.24 406.321 1887.54 406.321C1884.84 406.321 1882.65 404.139 1882.65 401.45Z" stroke="black"/>
</g>
<mask id="mask82_30_2877" style="mask-type:alpha" maskUnits="userSpaceOnUse" x="1919" y="395" width="12" height="8">
<rect x="1930.79" y="402.556" width="11.2464" height="6.95163" transform="rotate(180 1930.79 402.556)" fill="#D9D9D9"/>
</mask>
<g mask="url(#mask82_30_2877)">
<path d="M1920.04 401.45C1920.04 398.76 1922.22 396.578 1924.92 396.578C1927.62 396.578 1929.81 398.76 1929.81 401.45C1929.81 404.139 1927.62 406.321 1924.92 406.321C1922.22 406.321 1920.04 404.139 1920.04 401.45Z" stroke="black"/>
</g>
<mask id="mask83_30_2877" style="mask-type:alpha" maskUnits="userSpaceOnUse" x="1956" y="395" width="12" height="8">
<rect x="1967.38" y="402.556" width="11.2464" height="6.95163" transform="rotate(180 1967.38 402.556)" fill="#D9D9D9"/>
</mask>
<g mask="url(#mask83_30_2877)">
<path d="M1956.62 401.45C1956.62 398.76 1958.81 396.578 1961.51 396.578C1964.21 396.578 1966.39 398.76 1966.39 401.45C1966.39 404.139 1964.21 406.321 1961.51 406.321C1958.81 406.321 1956.62 404.139 1956.62 401.45Z" stroke="black"/>
</g>
<line x1="1926.46" y1="236.509" x2="1926.46" y2="189.111" stroke="black"/>
<line x1="1888" y1="244.881" x2="1888" y2="197.483" stroke="black"/>
<line x1="1851.09" y1="275.057" x2="1851.09" y2="227.659" stroke="black"/>
<line x1="1961.34" y1="244.09" x2="1961.34" y2="196.692" stroke="black"/>
<line x1="1998.25" y1="272.528" x2="1998.25" y2="225.131" stroke="black"/>
<line x1="1832.9" y1="328.482" x2="1785.38" y2="328.482" stroke="black"/>
<line x1="1841.3" y1="365.138" x2="1793.78" y2="365.138" stroke="black"/>
<line x1="1871.55" y1="401.32" x2="1824.03" y2="401.32" stroke="black"/>
<line x1="1841.13" y1="291.829" x2="1792.98" y2="291.829" stroke="black"/>
<line x1="1870.76" y1="255.176" x2="1821.5" y2="255.176" stroke="black"/>
<line x1="2017.77" y1="328.589" x2="2065.29" y2="328.589" stroke="black"/>
<line x1="2009.37" y1="292.094" x2="2056.89" y2="292.094" stroke="black"/>
<line x1="1979.12" y1="255.281" x2="2026.64" y2="255.281" stroke="black"/>
<line x1="2010.16" y1="365.243" x2="2057.68" y2="365.243" stroke="black"/>
<line x1="1980.86" y1="402.054" x2="2029.17" y2="402.054" stroke="black"/>
<line x1="1926.01" y1="421.04" x2="1926.01" y2="468.438" stroke="black" stroke-width="3"/>
<path d="M1961 398L1961 449.747" stroke="black"/>
<line x1="1998.04" y1="382.457" x2="1998.04" y2="410.683" stroke="black"/>
<line x1="1887.96" y1="400.335" x2="1887.96" y2="452.553" stroke="black"/>
<line x1="1850.79" y1="382.457" x2="1850.79" y2="412.565" stroke="black"/>
<circle cx="1779.06" cy="291.574" r="14.2456" transform="rotate(-90 1779.06 291.574)" stroke="black"/>
<circle cx="1806.98" cy="255.602" r="14.2456" transform="rotate(-90 1806.98 255.602)" stroke="black"/>
<circle cx="1766.79" cy="329.574" r="18.2875" transform="rotate(90 1766.79 329.574)" stroke="black"/>
<circle cx="2071.09" cy="291.356" r="14.2456" transform="rotate(-180 2071.09 291.356)" stroke="black"/>
<circle cx="2040.98" cy="255.133" r="14.2456" transform="rotate(-180 2040.98 255.133)" stroke="black"/>
<circle cx="1851.86" cy="212.794" r="14.2456" transform="rotate(-90 1851.86 212.794)" stroke="black"/>
<circle cx="1888.08" cy="182.686" r="14.2456" transform="rotate(-90 1888.08 182.686)" stroke="black"/>
<circle cx="1961" cy="181.746" r="14.2456" stroke="black"/>
<circle cx="1996.29" cy="210.442" r="14.2456" stroke="black"/>
<circle cx="2084.06" cy="327.857" r="18.2875" transform="rotate(90 2084.06 327.857)" stroke="black"/>
</svg>
